HIERARCHY
ROOT hip
{
  OFFSET 0.0 0.0 0.0
  CHANNELS 6 Xposition Yposition Zposition Zrotation Yrotation Xrotation
  JOINT torso
  {
    OFFSET 0.0 0.0 0.0
    CHANNELS 3 Zrotation Xrotation Yrotation
    JOINT neck
    {
      OFFSET -8.600829999999974 327.7417449999999 60.895874000000276
      CHANNELS 3 Zrotation Xrotation Yrotation
      JOINT head
      {
        OFFSET 0.7211610000001087 266.848846 239.12060599999995
        CHANNELS 3 Zrotation Xrotation Yrotation
        End Site
        {
          OFFSET 0.0 0.0 0.0
        }
      }
    }
    JOINT left_collar
    {
      OFFSET -8.600829999999974 327.7417449999999 60.895874000000276
      CHANNELS 3 Zrotation Xrotation Yrotation
      JOINT left_upper_arm
      {
        OFFSET -122.29599000000002 -5.21875 31.800903999999946
        CHANNELS 3 Zrotation Xrotation Yrotation
        JOINT left_forearm
        {
          OFFSET -195.94708199999997 63.423126000000025 226.99352999999996
          CHANNELS 3 Zrotation Xrotation Yrotation
          JOINT left_hand
          {
            OFFSET -232.19226099999992 28.282164999999964 80.86950699999989
            CHANNELS 3 Zrotation Xrotation Yrotation
            End Site
            {
              OFFSET 0.0 0.0 0.0
            }
          }
        }
      }
    }
    JOINT right_collar
    {
      OFFSET -8.600829999999974 327.7417449999999 60.895874000000276
      CHANNELS 3 Zrotation Xrotation Yrotation
      JOINT right_upper_arm
      {
        OFFSET 168.41261300000002 -11.913361000000066 -9.389160000000174
        CHANNELS 3 Zrotation Xrotation Yrotation
        JOINT right_forearm
        {
          OFFSET 213.49279800000005 104.82293699999997 83.52258300000017
          CHANNELS 3 Zrotation Xrotation Yrotation
          JOINT right_hand
          {
            OFFSET 222.067185 62.005675999999994 -110.52026300000034
            CHANNELS 3 Zrotation Xrotation Yrotation
            End Site
            {
              OFFSET 0.0 0.0 0.0
            }
          }
        }
      }
    }
  }
}
MOTION
Frames: 14
Frame Time: 0.01
-472.07285413759644 141.41138154401446 353.7684160895779 8.872245990169311 -12.859838202129387 -11.562137388672111 -0.036563846237797314 6.735285092450807 0.1836038202124146 -10.360599203157367 -10.666128478408671 9.492787726337735 0.0 0.0 0.0 -0.07390103627748136 -0.2937194692915993 6.6294493617172385 61.38754182557444 50.64063249460107 17.187633260855854 37.165381420979216 16.448954334683794 -14.365450852575071 0.0 0.0 0.0 0.9958485254158062 -0.11920079755497309 -2.8138748236967355 -32.38912656601829 -0.0038985015695863663 59.0760607224434 61.96038379364124 8.309519780537569 29.177130264088508 0.0 120.0 0.0
-472.9755388313464 141.45630794876033 353.60076629014594 8.89549503390169 -12.8786729866866 -11.32279308572443 -0.031585365554251385 6.714782451588377 0.18241869782613113 -10.430643463678809 -10.579171661504086 9.555322085201814 0.0 0.0 0.0 -0.043576108053954295 -0.29108635043023384 6.712108208631095 61.58148878161261 50.81238023661868 17.112173818821535 37.098597983485945 16.365146210636233 -14.173817539772841 0.0 0.0 0.0 1.3208034734272256 -0.0930735128544635 -2.8140671045483385 -32.05812377825818 -0.5015730287381618 59.49541196900584 65.69473010886503 9.323394522154006 29.53355241597347 0.0 120.0 0.0
-473.88870207407075 141.50373666698863 353.4402967223415 8.92358976894858 -12.896277008276794 -11.076574136316149 -0.025661052065162913 6.694183501986275 0.1811075811015677 -10.502895859778087 -10.491453178391884 9.619844069532824 0.0 0.0 0.0 -0.01148739588230827 -0.2881357725450143 6.794440360134397 61.7757067318399 50.98785358070144 17.030165769227672 37.027781586243634 16.27952170860759 -13.981537282584457 0.0 0.0 0.0 1.5923133217254202 -0.07339538797058409 -2.8519219346263482 -31.6697954407832 -1.1105876533346197 60.03826145625589 69.47181968294123 10.52382763820822 29.78224300361642 0.0 120.0 0.0
-474.8093460810446 141.5514565906304 353.29071438257705 8.956361673478357 -12.9131815141082 -10.824700235944045 -0.01890790753522529 6.673761746232837 0.1796923417138093 -10.576539936679259 -10.402999539972479 9.685606602931895 0.0 0.0 0.0 0.02216372873189156 -0.28489741290576115 6.876120088453436 61.96920615164147 51.166699502577075 16.941027383514278 36.95305226737352 16.192300077878002 -13.78912108631893 0.0 0.0 0.0 1.7932896608271176 -0.06179149305752972 -2.9356788233522066 -31.217363778057564 -1.8512003373412182 60.72190255805748 73.26536447492606 11.929121583783274 29.928917966271044 0.0 120.0 0.0
-475.73428992800046 141.596887371884 353.15596081531555 8.993552762151326 -12.930071985005073 -10.568529262822214 -0.011456724628102748 6.653830057122391 0.17819783384178037 -10.650679651240686 -10.313809830501215 9.751789708114707 0.0 0.0 0.0 0.0571642352599616 -0.28140507318681884 6.956889847224847 62.16103582138458 51.34858266953394 16.844199109041476 36.874498863398145 16.103692837435272 -13.597122102303503 0.0 0.0 0.0 1.9066972176318453 -0.06001610260439733 -3.07341268497812 -30.695278292905574 -2.7451069236627927 61.562611968953824 77.04534731439463 13.553034283437887 29.982495800092032 0.0 120.0 0.0
-476.6602027355797 141.6371340590048 353.04013055271093 9.034825463048417 -12.94777421779002 -10.309535113692736 -0.003449717582758797 6.634739314226277 0.17665159127141525 -10.724359360010892 -10.223860955944675 9.817518906820737 0.0 0.0 0.0 0.09329197532961636 -0.2776967649123778 7.03657309657537 62.35030176583613 51.53319000537673 16.73915929156186 36.79218173517879 16.013904677981845 -13.40613442735577 0.0 0.0 0.0 1.9164307045030808 -0.06998404602558651 -3.272513661548876 -30.100252135327985 -3.8144971122215083 62.574510112772735 80.77855641161916 15.402941673345675 29.95451581220263 0.0 120.0 0.0
-477.58364460495204 141.66905499346913 352.9473780034561 9.079775655989858 -12.967235147241212 -10.049280438198862 0.004961743712791502 6.61687556771179 0.17508349025282405 -10.796586580641874 -10.133112733290465 9.881886145827272 0.0 0.0 0.0 0.13031784154443965 -0.2738148099160497 7.115084366351866 62.53618346457297 51.720233780888606 16.625438828883592 36.70613909432184 15.923135625316394 -13.216790117901748 0.0 0.0 0.0 1.8082826301798893 -0.09379731594463131 -3.5391016843317735 -29.432358375043503 -5.080789385175303 63.7684250969814 84.42951059056259 17.478084698022776 29.858284707160422 0.0 120.0 0.0
-478.5011142022363 141.68934140209365 352.88181460906617 9.127948438117103 -12.989498828996062 -9.789384823341967 0.013619286037822401 6.6006556466893755 0.17352537406399585 -10.866356781105148 -10.041512454717004 9.94397255979365 0.0 0.0 0.0 0.16800731352425194 -0.269805951857539 7.192435691315695 62.717946922807016 51.90945307369399 16.502634578529094 36.61639672026289 15.831584205553613 -13.029753951277408 0.0 0.0 0.0 1.5709301438820702 -0.13374741792796283 -3.8774209570685363 -28.69606903791043 -6.563035156082085 65.15091114747614 87.96167716696483 19.768086559564928 29.70782875403002 0.0 120.0 0.0
-479.40910161483004 141.69460664544528 352.8473985589471 9.178856002222522 -13.015678143714675 -9.531489229508251 0.022359605626027446 6.586521191433954 0.17201063136693961 -10.932679341569104 -9.948998711201579 10.002872283834545 0.0 0.0 0.0 0.20612121846798034 -0.2657214665257681 7.268738751754147 62.89495436012931 52.100613526657796 16.370421402190058 36.52298061972341 15.739451269166137 -12.845715539711783 0.0 0.0 0.0 1.1968523689725559 -0.1922704443707848 -4.289273458135408 -27.901106394197242 -8.2760155017711 66.72359009158967 91.33880956368733 22.25189858455934 29.516781413095845 0.0 120.0 0.0
-480.30414490021207 141.68148266720434 352.8478197972378 9.231996860450888 -13.046922907342871 -9.277217702122334 0.031016516718006284 6.5749311637673005 0.1705737201501471 -10.994603751483837 -9.855504452379611 10.057716456809004 0.0 0.0 0.0 0.24441561767096795 -0.2616172486102358 7.344202292818168 63.06667041590206 52.29350542310458 16.228562739181942 36.42593196873265 15.646944078914341 -12.665378525954017 0.0 0.0 0.0 0.6830809662868899 -0.27183456304440573 -4.773559611446969 -27.062987625604777 -10.228104545585477 68.48297301431047 94.52620039026208 24.897263268268713 29.297366510243176 0.0 120.0 0.0
-481.182888614683 141.64672085318696 352.88638343230963 9.28687553771344 -13.084385180559389 -9.028137573564356 0.03942302073638106 6.566352977582133 0.16924963351397582 -11.051245057898356 -9.760959476064093 10.107696517897434 0.0 0.0 0.0 0.28264082823942077 -0.2575538425519396 7.4191246494190235 63.232664883365985 52.48794017536188 16.076919590022534 36.32532351586623 15.55428025281849 -12.489446753338273 0.0 0.0 0.0 0.03168893591275699 -0.37475027468049427 -5.325995302699426 -26.203184155719775 -12.419037910663388 70.42087204364215 97.49167487499132 27.660689419253554 29.059636900644346 0.0 120.0 0.0
-482.04214253831753 141.5872942707146 352.96589495994965 9.343021797162896 -13.129182664450932 -8.785719526803058 0.047413409035079936 6.561252488922588 0.16807331140897566 -11.101807579844984 -9.665292752872984 10.152085902338873 0.0 0.0 0.0 0.3205396859350206 -0.25359637701400056 7.493881449189548 63.39261208531886 52.683745380114225 15.91545780209537 36.22127652366499 15.461691176936801 -12.318607497649388 0.0 0.0 0.0 -0.7500613027134359 -0.5029117675971823 -5.939064349535686 -25.348880141741038 -14.837789447500791 72.52543113783413 100.20623464650737 30.487847197375984 28.81110379436932 0.0 120.0 0.0
-482.8789387958601 141.50049812159716 353.0885509396526 9.400008439048344 -13.18236115335583 -8.551299004536787 0.05482537853912413 6.560083183706189 0.16707901084830892 -11.145605953255906 -9.568435160935021 10.190259291459201 0.0 0.0 0.0 0.35784523971599425 -0.24981435782025088 7.568908789968176 63.54628710663869 52.88075862997444 15.744253601707802 36.113977281732204 15.369424558003292 -12.153512066114647 0.0 0.0 0.0 -1.649958157117108 -0.657499210966885 -6.6022425001779 -24.53238446157963 -17.4608031394873 74.78270114511726 102.64437679799211 33.314240032752394 28.556857820124822 0.0 120.0 0.0
-483.69058560587484 141.38404519833813 353.25583892416637 9.45746673446434 -13.244857089760364 -8.326040504349502 0.06150211791212126 6.563274987456424 0.16629965381261425 -11.18208267363583 -9.470323295894152 10.221708668605514 0.0 0.0 0.0 0.3942781378110372 -0.24628127363363964 7.644682397279358 63.69355920478249 53.07882029656596 15.563497392768237 36.00369223238943 15.277745863641844 -11.994754300028422 0.0 0.0 0.0 -2.651471671792469 -0.8386904358656149 -7.302493984955205 -23.79030143590638 -20.250825822970945 77.17857545863924 104.78421783288786 36.06601317451552 28.300251956482782 0.0 120.0 0.0
